<svg xmlns="http://www.w3.org/2000/svg" version="1.1" xmlns:xlink="http://www.w3.org/1999/xlink" xmlns:svgjs="http://svgjs.dev/svgjs" width="1500" height="299" viewBox="0 0 1500 299"><g transform="matrix(1,0,0,1,-0.9090909090909918,-0.839407671843702)"><svg viewBox="0 0 396 79" data-background-color="#010c80" preserveAspectRatio="xMidYMid meet" height="299" width="1500" xmlns="http://www.w3.org/2000/svg" xmlns:xlink="http://www.w3.org/1999/xlink"><g id="tight-bounds" transform="matrix(1,0,0,1,0.2400000000000091,0.2217832979118839)"><svg viewBox="0 0 395.52 78.5564334041762" height="78.5564334041762" width="395.52"><g><svg viewBox="0 0 515.2167188205501 102.3300663954913" height="78.5564334041762" width="395.52"><g transform="matrix(1,0,0,1,119.69671882055013,14.142577917177164)"><svg viewBox="0 0 395.52 74.04491056113697" height="74.04491056113697" width="395.52"><g id="textblocktransform"><svg viewBox="0 0 395.52 74.04491056113697" height="74.04491056113697" width="395.52" id="textblock"><g><svg viewBox="0 0 395.52 74.04491056113697" height="74.04491056113697" width="395.52"><g transform="matrix(1,0,0,1,0,0)"><svg width="395.52" viewBox="1.5 -37.5 204.03 38.2" height="74.04491056113697" data-palette-color="#f8fafc"><path d="M17.5 0.7Q12.65 0.7 9.05-1.53 5.45-3.75 3.48-7.88 1.5-12 1.5-17.5L1.5-17.5Q1.5-22.95 3.53-27.08 5.55-31.2 9.15-33.45 12.75-35.7 17.3-35.7L17.3-35.7Q21.3-35.7 24.9-34.2L24.9-34.2 24.4-29.95Q21.2-31.55 18.2-31.55L18.2-31.55Q14.5-31.55 11.88-29.7 9.25-27.85 7.9-24.65 6.55-21.45 6.55-17.5L6.55-17.5Q6.55-13.55 7.9-10.35 9.25-7.15 11.88-5.3 14.5-3.45 18.25-3.45L18.25-3.45Q21.5-3.45 24.4-4.95L24.4-4.95 24.9-0.7Q21.7 0.7 17.5 0.7L17.5 0.7ZM39.8-25Q43.6-25 45.62-22.03 47.65-19.05 47.65-14L47.65-14 47.65 0 43.3 0 43.3-13.45Q43.3-17.35 42.2-19.18 41.1-21 38.8-21L38.8-21Q37.1-21 35.72-20.08 34.35-19.15 33.4-17.5L33.4-17.5 33.4 0 29.05 0 29.05-37.5 33.4-37.5 33.4-21.9Q34.45-23.35 36.15-24.18 37.85-25 39.8-25L39.8-25ZM57.55 0.5Q54.75 0.5 52.95-1.5 51.15-3.5 51.15-6.6L51.15-6.6Q51.15-11.2 55-13.23 58.85-15.25 63.6-15.35L63.6-15.35Q63.6-18.55 62.65-19.8 61.7-21.05 59.45-21.05L59.45-21.05Q56.55-21.05 53.55-18.8L53.55-18.8 53-22.45Q56.15-25 60.3-25L60.3-25Q64.25-25 66.15-22.73 68.05-20.45 68.05-15.4L68.05-15.4 68.05-8.25Q68.05-5.4 68.45-4.23 68.85-3.05 70.2-3.05L70.2-3.05 70.75-3.05 70.2 0.5 69.25 0.5Q66.95 0.5 65.85-0.35 64.75-1.2 64.05-3.1L64.05-3.1Q62.9-1.45 61.2-0.48 59.5 0.5 57.55 0.5L57.55 0.5ZM58.9-3.05Q60.1-3.05 61.4-3.98 62.7-4.9 63.6-6.4L63.6-6.4 63.6-12.25Q59.75-12.05 57.75-10.78 55.75-9.5 55.75-6.85L55.75-6.85Q55.75-3.05 58.9-3.05L58.9-3.05ZM81.19 0.5Q78.34 0.5 76.97-1.2 75.59-2.9 75.59-5.35L75.59-5.35 75.59-21.05 72.19-21.05 72.59-24.5 75.59-24.5 75.59-30.55 79.94-31 79.94-24.5 85.24-24.5 85.24-21.05 79.94-21.05 79.94-7.1Q79.94-4.85 80.77-3.95 81.59-3.05 83.64-3.05L83.64-3.05 85.19-3.05 84.79 0.5 81.19 0.5ZM96.09 0.5Q93.24 0.5 91.87-1.2 90.49-2.9 90.49-5.35L90.49-5.35 90.49-21.05 87.09-21.05 87.49-24.5 90.49-24.5 90.49-30.55 94.84-31 94.84-24.5 100.14-24.5 100.14-21.05 94.84-21.05 94.84-7.1Q94.84-4.85 95.67-3.95 96.49-3.05 98.54-3.05L98.54-3.05 100.09-3.05 99.69 0.5 96.09 0.5ZM114.09 0.5Q110.39 0.5 107.76-1.23 105.14-2.95 103.81-5.9 102.49-8.85 102.49-12.45L102.49-12.45Q102.49-15.9 103.71-18.78 104.94-21.65 107.26-23.33 109.59-25 112.79-25L112.79-25Q116.89-25 119.46-22.25 122.04-19.5 122.04-14.65L122.04-14.65Q122.04-13.8 121.84-12.3L121.84-12.3 106.94-12.3Q107.09-7.95 109.11-5.7 111.14-3.45 114.39-3.45L114.39-3.45Q115.94-3.45 117.66-3.83 119.39-4.2 120.69-4.9L120.69-4.9 121.09-1Q118.34 0.5 114.09 0.5L114.09 0.5ZM107.14-15.35L117.59-15.35Q117.59-17.85 116.36-19.43 115.14-21 112.84-21L112.84-21Q110.59-21 109.11-19.6 107.64-18.2 107.14-15.35L107.14-15.35ZM125.94 0L125.94-24.5 129.49-24.5 130.04-20.4Q131.69-22.8 133.16-23.9 134.64-25 136.29-25L136.29-25Q136.94-25 137.44-24.85L137.44-24.85 136.99-19.9Q136.34-20.05 135.49-20.05L135.49-20.05Q133.84-20.05 132.39-19.23 130.94-18.4 130.29-17.3L130.29-17.3 130.29 0 125.94 0ZM151.08-25Q154.03-25 156.21-23.25 158.38-21.5 159.53-18.57 160.68-15.65 160.68-12.25L160.68-12.25Q160.68-8.7 159.48-5.78 158.28-2.85 156.11-1.18 153.93 0.5 151.08 0.5L151.08 0.5Q149.08 0.5 147.36-0.25 145.63-1 144.48-2.4L144.48-2.4 144.28 0 140.33 0 140.33-37.5 144.68-37.5 144.68-22.15Q147.28-25 151.08-25L151.08-25ZM150.33-3.35Q152.98-3.35 154.61-5.93 156.23-8.5 156.23-12.25L156.23-12.25Q156.23-16.1 154.63-18.6 153.03-21.1 150.33-21.1L150.33-21.1Q147.63-21.1 145.96-18.82 144.28-16.55 144.28-12.25L144.28-12.25Q144.28-7.8 145.96-5.58 147.63-3.35 150.33-3.35L150.33-3.35ZM174.28 0.5Q170.98 0.5 168.58-1.18 166.18-2.85 164.91-5.75 163.63-8.65 163.63-12.25L163.63-12.25Q163.63-15.85 164.91-18.75 166.18-21.65 168.58-23.33 170.98-25 174.28-25L174.28-25Q177.53-25 179.93-23.33 182.33-21.65 183.58-18.75 184.83-15.85 184.83-12.25L184.83-12.25Q184.83-8.65 183.58-5.75 182.33-2.85 179.93-1.18 177.53 0.5 174.28 0.5L174.28 0.5ZM174.28-3.35Q177.18-3.35 178.78-5.7 180.38-8.05 180.38-12.25L180.38-12.25Q180.38-16.45 178.78-18.78 177.18-21.1 174.28-21.1L174.28-21.1Q171.28-21.1 169.68-18.78 168.08-16.45 168.08-12.25L168.08-12.25Q168.08-8 169.68-5.68 171.28-3.35 174.28-3.35L174.28-3.35ZM185.73 0L192.88-12.2 185.83-24.5 190.98-24.5 195.73-14.7 200.08-24.5 205.33-24.5 198.43-12.6 205.53 0 200.33 0 195.58-9.7 190.88 0 185.73 0Z" opacity="1" transform="matrix(1,0,0,1,0,0)" fill="#f8fafc" class="wordmark-text-0" data-fill-palette-color="primary" id="text-0"></path></svg></g></svg></g></svg></g></svg></g><g><svg viewBox="0 0 102.21649251491917 102.3300663954913" height="102.3300663954913" width="102.21649251491917"><g><svg xmlns="http://www.w3.org/2000/svg" xmlns:xlink="http://www.w3.org/1999/xlink" version="1.1" x="0" y="0" viewBox="5.000000000000001 4.8999999999999995 89.99999999999999 90.1" enable-background="new 0 0 100 100" xml:space="preserve" height="102.3300663954913" width="102.21649251491917" class="icon-icon-0" data-fill-palette-color="accent" id="icon-0"><g fill="#f8fafc" data-fill-palette-color="accent"><path d="M87.4 39.9H54.8V28.3h9.9c4 0 7.1-2.9 7.1-6.9v-9.2c0-4-3.1-7.3-7.1-7.3H49.3c-4 0-7.3 3.2-7.3 7.3v6.5H12.8c-4 0-7.8 3.7-7.8 7.7v21c0 4 3.8 7.3 7.8 7.3h21.9V72c0 4.4 3.3 8.2 7.7 8.2h24.3c1.9 7.4 7.2 12.5 14.6 14.8V80.2h6.1c4.4 0 7.6-3.8 7.6-8.2V48.1C95 43.7 91.8 39.9 87.4 39.9z" fill="#f8fafc" data-fill-palette-color="accent"></path></g></svg></g></svg></g></svg></g><defs></defs></svg><rect width="395.52" height="78.5564334041762" fill="none" stroke="none" visibility="hidden"></rect></g></svg></g></svg>